<svg xmlns="http://www.w3.org/2000/svg" width="707.529" height="405.417" viewBox="0 0 707.529 405.417"><g transform="translate(-1144.726 -1359.062)"><path d="M1561.279,1644.694a27.836,27.836,0,0,0,4.978-3.944Zm-27.039-3.944a28.145,28.145,0,0,0,4.978,3.944Z" transform="translate(-51.772 -14.5)" fill="none" stroke="#707070" stroke-miterlimit="10" stroke-width="2.62"/><path d="M1917.822,1361.77v400l-252.542-200Z" transform="translate(-69.358)" fill="#878782" stroke="#707070" stroke-miterlimit="10" stroke-width="2.62"/><path d="M1401.041,1561.765l-252.551,200v-400Z" fill="#878782" stroke="#707070" stroke-miterlimit="10" stroke-width="2.62"/><path d="M1848.5,1361.77,1595.958,1561.8l-81.436-64.466-4.978-3.934a20.337,20.337,0,0,0-22.06,0l-4.978,3.934-81.384,64.466L1148.57,1361.77Z" transform="translate(-0.011)" fill="#c6c2be" stroke="#707070" stroke-miterlimit="10" stroke-width="2.62"/><path d="M1848.49,1768.8h-700l252.551-200.033,81.384-64.466,4.978-3.934a20.33,20.33,0,0,1,22.06,0l4.978,3.934,81.436,64.466Z" transform="translate(0 -7.035)" fill="#94938f" stroke="#707070" stroke-miterlimit="10" stroke-width="2.62"/><path d="M700,271.695H0L333.978,7.2l4.978-3.934a20.283,20.283,0,0,1,22.06,0L366,7.2Z" transform="translate(1848.49 1633.853) rotate(180)" fill="#b9b4ae" stroke="#707070" stroke-miterlimit="10" stroke-width="2.62"/></g></svg>